REM MD5 3bb606d5ce5891e25a3a45ce06f61d8b
FILE "M6 PlayStation - Best of '99 Vol. 2 (France).bin" BINARY
  TRACK 01 MODE2/2352
    INDEX 01 00:00:00
  TRACK 02 AUDIO
    INDEX 00 55:19:57
    INDEX 01 55:21:57
  TRACK 03 AUDIO
    INDEX 00 59:01:65
    INDEX 01 59:03:65
  TRACK 04 AUDIO
    INDEX 00 63:45:08
    INDEX 01 63:47:08
REM LEADOUT 66:48:40
